<svg width="18" height="16" viewBox="0 0 18 16" fill="none" xmlns="http://www.w3.org/2000/svg">
<path d="M15.25 15.1429H2.75002C2.15706 15.1429 1.58657 14.916 1.15557 14.5088C0.724565 14.1016 0.465731 13.5449 0.43216 12.9529L0.428589 12.8214V2.46429C0.428539 2.05705 0.583086 1.66499 0.860996 1.36732C1.13891 1.06965 1.51945 0.888588 1.92573 0.860715L2.03573 0.857143H13.1072C13.5144 0.857093 13.9065 1.01164 14.2041 1.28955C14.5018 1.56746 14.6829 1.94801 14.7107 2.35429L14.7143 2.46429V3H15.9643C16.3715 2.99995 16.7636 3.1545 17.0613 3.43241C17.3589 3.71032 17.54 4.09087 17.5679 4.49714L17.5714 4.60714V12.8214C17.5715 13.4144 17.3446 13.9849 16.9374 14.4159C16.5302 14.8469 15.9734 15.1057 15.3814 15.1393L15.25 15.1429H2.75002H15.25ZM2.75002 14.0714H15.25C15.5638 14.0714 15.8662 13.9533 16.097 13.7407C16.3277 13.528 16.4701 13.2363 16.4957 12.9236L16.5 12.8214V4.60714C16.5 4.47769 16.4531 4.35261 16.368 4.25505C16.283 4.15749 16.1654 4.09404 16.0372 4.07643L15.9643 4.07143H14.7143V11.75C14.7143 11.8795 14.6674 12.0045 14.5823 12.1021C14.4972 12.1997 14.3797 12.2631 14.2514 12.2807L14.1786 12.2857C14.0491 12.2857 13.9241 12.2388 13.8265 12.1537C13.7289 12.0686 13.6655 11.9511 13.6479 11.8229L13.6429 11.75V2.46429C13.6429 2.33483 13.596 2.20976 13.5109 2.11219C13.4258 2.01463 13.3083 1.95118 13.18 1.93357L13.1072 1.92857H2.03573C1.90628 1.92858 1.7812 1.97546 1.68364 2.06055C1.58608 2.14564 1.52262 2.26318 1.50502 2.39143L1.50002 2.46429V12.8214C1.50003 13.1351 1.618 13.4374 1.8305 13.6681C2.04301 13.8989 2.33452 14.0413 2.64716 14.0671L2.75002 14.0714H15.25H2.75002ZM6.31859 7.28857C6.81145 7.28857 7.21145 7.68857 7.21145 8.18143V10.6786C7.21145 11.1714 6.81145 11.5714 6.31859 11.5714H3.82145C3.32859 11.5714 2.92859 11.1714 2.92859 10.6786V8.18143C2.92859 7.68857 3.32859 7.28857 3.82145 7.28857H6.31859ZM9.17859 10.5H11.6757C11.8115 10.5 11.9421 10.5516 12.0413 10.6443C12.1405 10.7369 12.2008 10.8638 12.21 10.9992C12.2193 11.1346 12.1768 11.2685 12.0911 11.3738C12.0055 11.4791 11.8831 11.5479 11.7486 11.5664L11.6757 11.5714H9.17859C9.04286 11.5714 8.9122 11.5198 8.81302 11.4272C8.71384 11.3345 8.65354 11.2076 8.64428 11.0722C8.63503 10.9368 8.67753 10.8029 8.76318 10.6976C8.84884 10.5924 8.97127 10.5235 9.10573 10.505L9.17859 10.5H11.6757H9.17859V10.5ZM6.14073 8.36H4.00002V10.5H6.14073V8.36ZM9.17859 7.28857H11.6757C11.8115 7.28861 11.9421 7.34018 12.0413 7.43284C12.1405 7.5255 12.2008 7.65236 12.21 7.78777C12.2193 7.92319 12.1768 8.05707 12.0911 8.16236C12.0055 8.26765 11.8831 8.3365 11.7486 8.355L11.6757 8.36H9.17859C9.04189 8.36139 8.90983 8.31047 8.80946 8.21766C8.70908 8.12486 8.64798 7.99719 8.63867 7.8608C8.62936 7.72442 8.67254 7.58963 8.75937 7.48404C8.8462 7.37846 8.97011 7.31006 9.10573 7.29286L9.17859 7.28857H11.6757H9.17859V7.28857ZM3.46145 4.06929H11.6757C11.8115 4.06933 11.9421 4.12089 12.0413 4.21355C12.1405 4.30622 12.2008 4.43307 12.21 4.56849C12.2193 4.7039 12.1768 4.83778 12.0911 4.94307C12.0055 5.04836 11.8831 5.11721 11.7486 5.13571L11.6757 5.14071H3.46145C3.32578 5.14049 3.19524 5.08881 3.0962 4.99609C2.99716 4.90337 2.93698 4.77652 2.92783 4.64116C2.91867 4.5058 2.96121 4.372 3.04686 4.26679C3.13252 4.16158 3.2549 4.09278 3.3893 4.07429L3.46145 4.06929H11.6757H3.46145V4.06929Z" fill="#3992FF"/>
</svg>
