<svg width="12" height="12" viewBox="0 0 20 20" fill="none" xmlns="http://www.w3.org/2000/svg">
<path d="M9.99998 14.1667C8.8472 14.1667 7.8647 13.7603 7.05248 12.9475C6.2397 12.1353 5.83331 11.1528 5.83331 10C5.83331 8.84726 6.2397 7.86448 7.05248 7.05171C7.8647 6.23948 8.8472 5.83337 9.99998 5.83337C11.1528 5.83337 12.1355 6.23948 12.9483 7.05171C13.7605 7.86448 14.1666 8.84726 14.1666 10C14.1666 11.1528 13.7605 12.1353 12.9483 12.9475C12.1355 13.7603 11.1528 14.1667 9.99998 14.1667ZM1.66665 10.8334C1.43054 10.8334 1.23276 10.7534 1.07331 10.5934C0.913313 10.4339 0.833313 10.2362 0.833313 10C0.833313 9.76393 0.913313 9.56587 1.07331 9.40587C1.23276 9.24643 1.43054 9.16671 1.66665 9.16671H3.33331C3.56942 9.16671 3.76748 9.24643 3.92748 9.40587C4.08692 9.56587 4.16665 9.76393 4.16665 10C4.16665 10.2362 4.08692 10.4339 3.92748 10.5934C3.76748 10.7534 3.56942 10.8334 3.33331 10.8334H1.66665ZM16.6666 10.8334C16.4305 10.8334 16.2328 10.7534 16.0733 10.5934C15.9133 10.4339 15.8333 10.2362 15.8333 10C15.8333 9.76393 15.9133 9.56587 16.0733 9.40587C16.2328 9.24643 16.4305 9.16671 16.6666 9.16671H18.3333C18.5694 9.16671 18.7672 9.24643 18.9266 9.40587C19.0866 9.56587 19.1666 9.76393 19.1666 10C19.1666 10.2362 19.0866 10.4339 18.9266 10.5934C18.7672 10.7534 18.5694 10.8334 18.3333 10.8334H16.6666ZM9.99998 4.16671C9.76387 4.16671 9.56609 4.08671 9.40665 3.92671C9.24665 3.76726 9.16665 3.56948 9.16665 3.33337V1.66671C9.16665 1.4306 9.24665 1.23254 9.40665 1.07254C9.56609 0.913096 9.76387 0.833374 9.99998 0.833374C10.2361 0.833374 10.4341 0.913096 10.5941 1.07254C10.7536 1.23254 10.8333 1.4306 10.8333 1.66671V3.33337C10.8333 3.56948 10.7536 3.76726 10.5941 3.92671C10.4341 4.08671 10.2361 4.16671 9.99998 4.16671ZM9.99998 19.1667C9.76387 19.1667 9.56609 19.0867 9.40665 18.9267C9.24665 18.7673 9.16665 18.5695 9.16665 18.3334V16.6667C9.16665 16.4306 9.24665 16.2328 9.40665 16.0734C9.56609 15.9134 9.76387 15.8334 9.99998 15.8334C10.2361 15.8334 10.4341 15.9134 10.5941 16.0734C10.7536 16.2328 10.8333 16.4306 10.8333 16.6667V18.3334C10.8333 18.5695 10.7536 18.7673 10.5941 18.9267C10.4341 19.0867 10.2361 19.1667 9.99998 19.1667ZM4.70831 5.87504L3.81248 5.00004C3.64581 4.84726 3.56581 4.65282 3.57248 4.41671C3.5797 4.1806 3.6597 3.97921 3.81248 3.81254C3.97915 3.64587 4.18054 3.56254 4.41665 3.56254C4.65276 3.56254 4.8472 3.64587 4.99998 3.81254L5.87498 4.70837C6.02776 4.87504 6.10415 5.06948 6.10415 5.29171C6.10415 5.51393 6.02776 5.70837 5.87498 5.87504C5.7222 6.04171 5.53137 6.12143 5.30248 6.11421C5.07303 6.10754 4.87498 6.02782 4.70831 5.87504V5.87504ZM15 16.1875L14.125 15.2917C13.9722 15.125 13.8958 14.9273 13.8958 14.6984C13.8958 14.4689 13.9722 14.2778 14.125 14.125C14.2778 13.9584 14.4689 13.8787 14.6983 13.8859C14.9272 13.8925 15.125 13.9723 15.2916 14.125L16.1875 15C16.3541 15.1528 16.4341 15.3473 16.4275 15.5834C16.4203 15.8195 16.3403 16.0209 16.1875 16.1875C16.0208 16.3542 15.8194 16.4375 15.5833 16.4375C15.3472 16.4375 15.1528 16.3542 15 16.1875ZM14.125 5.87504C13.9583 5.72226 13.8786 5.53115 13.8858 5.30171C13.8925 5.07282 13.9722 4.87504 14.125 4.70837L15 3.81254C15.1528 3.64587 15.3472 3.56587 15.5833 3.57254C15.8194 3.57976 16.0208 3.65976 16.1875 3.81254C16.3541 3.97921 16.4375 4.1806 16.4375 4.41671C16.4375 4.65282 16.3541 4.84726 16.1875 5.00004L15.2916 5.87504C15.125 6.02782 14.9305 6.10421 14.7083 6.10421C14.4861 6.10421 14.2916 6.02782 14.125 5.87504V5.87504ZM3.81248 16.1875C3.64581 16.0209 3.56248 15.8195 3.56248 15.5834C3.56248 15.3473 3.64581 15.1528 3.81248 15L4.70831 14.125C4.87498 13.9723 5.07303 13.8959 5.30248 13.8959C5.53137 13.8959 5.7222 13.9723 5.87498 14.125C6.04165 14.2778 6.12165 14.4689 6.11498 14.6984C6.10776 14.9273 6.02776 15.125 5.87498 15.2917L4.99998 16.1875C4.8472 16.3542 4.65276 16.4339 4.41665 16.4267C4.18054 16.42 3.97915 16.3403 3.81248 16.1875Z" fill="#2a2b2f"/>
</svg>
